<svg xmlns="http://www.w3.org/2000/svg" viewBox="0 0 32 32">
  <!-- Borboleta com cores vibrantes para alto contraste no navegador (Dark/Light mode) -->
  <path d="M16 20C16 20 12 14 6 14C2 14 2 22 8 26C10 27.3 14 26 16 22C18 26 22 27.3 24 26C30 22 30 14 26 14C20 14 16 20 16 20Z" fill="#8C7355" stroke="#FFFFFF" stroke-width="1"/>
  <circle cx="16" cy="18" r="1.5" fill="#FFFFFF"/>
  <path d="M16 10C16 10 14 6 10 6C6 6 6 12 10 14M16 10C16 10 18 6 22 6C26 6 26 12 22 14" fill="none" stroke="#FFFFFF" stroke-width="1.2" stroke-linecap="round"/>
</svg>
